<?xml version="1.0" encoding="UTF-8" standalone="no"?>
<svg width="46px" height="32px" viewBox="0 0 46 32" version="1.1" xmlns="http://www.w3.org/2000/svg" xmlns:xlink="http://www.w3.org/1999/xlink">
    <g stroke="none" stroke-width="1" fill="none" fill-rule="evenodd">
        <g fill="#FFFFFF">
            <path d="M46,20.9214618 C44.4003668,21.3760164 41.6601286,21.4741511 41.1004336,21.5762508 C34.5468668,23.5072449 34.205023,22.8196917 32.4848409,23.5072439 C30.7646588,24.1947961 23.2943419,28.9921514 18.232092,29.9794604 C13.169842,30.9667695 10.1192952,29.7684846 6.17749209,29.9794596 C4.27644466,30.7397055 1.05508903,31.9152998 7.08688108e-15,32 C1.05508905,30.0995615 3.54707028,28.756838 5.44581485,27.7244027 C8.48380272,23.9723232 11.2924695,22.5910913 13.2466813,21.5762508 C12.4941075,18.515852 11.0181558,15.8861478 10.7814704,12.5298044 C10.2604129,5.14088925 13.1125755,1.29069896 14.9067878,-1.94316769e-17 C16.0329695,3.62344242 19.6934853,10.6243206 21.0623503,13.9641395 C22.4312154,17.3039583 23,20.9214614 23.3193796,21.1282794 C23.6387592,21.3350974 31.932557,20.520665 32.3969737,19.9065576 C32.9343315,19.1959989 33.8959261,18.213575 35.279501,17.9415955 C36.5147176,17.6987798 38.1514125,18.0978879 39.0892681,18.5616321 C40.641023,19.3289327 39.998963,19.9956929 46,20.9214618 Z" id="teal"></path>
        </g>
    </g>
</svg>