<?xml version="1.0" encoding="utf-8"?>
<!-- Generator: Adobe Illustrator 18.0.0, SVG Export Plug-In . SVG Version: 6.00 Build 0)  -->
<!DOCTYPE svg PUBLIC "-//W3C//DTD SVG 1.1//EN" "http://www.w3.org/Graphics/SVG/1.1/DTD/svg11.dtd">
<svg version="1.1" id="icons" xmlns="http://www.w3.org/2000/svg" xmlns:xlink="http://www.w3.org/1999/xlink" x="0px" y="0px"
	 viewBox="0 0 177.1 100.9" enable-background="new 0 0 177.1 100.9" xml:space="preserve">
<polyline fill="none" stroke="#F06B4E" stroke-width="2" stroke-linecap="round" stroke-linejoin="round" stroke-miterlimit="10" points="
	84.8,24.4 1,24.4 1,84.1 49.8,84.1 67.1,99.9 67.1,84.1 92.2,84.1 92.2,68.9 "/>
<path fill="none" stroke="#F06B4E" stroke-width="2" stroke-linecap="round" stroke-miterlimit="10" d="M68.4,44.3
	c0-4.4-3.6-7.9-7.9-7.9c-4.4,0-7.9,3.6-7.9,7.9"/>
<path fill="none" stroke="#F06B4E" stroke-width="2" stroke-linecap="round" stroke-miterlimit="10" d="M24.8,44.3
	c0-4.4,3.6-7.9,7.9-7.9c4.4,0,7.9,3.6,7.9,7.9"/>
<path fill="none" stroke="#F06B4E" stroke-width="2" stroke-linecap="round" stroke-miterlimit="10" d="M20.8,72.1
	c0-9.8,8-17.8,17.8-17.8h15.9c9.8,0,17.8,8,17.8,17.8"/>
<polygon fill="none" stroke="#00B7DA" stroke-width="2" stroke-linecap="round" stroke-linejoin="round" stroke-miterlimit="10" points="
	176.1,68.9 127.3,68.9 110,84.6 110,68.9 84.8,68.9 84.8,1 176.1,1 "/>
<path fill="none" stroke="#00B7DA" stroke-width="2" stroke-linecap="round" stroke-linejoin="round" stroke-miterlimit="10" d="
	M108.6,25.8c0-4.4,3.6-7.9,7.9-7.9c4.4,0,7.9,3.6,7.9,7.9"/>
<path fill="none" stroke="#00B7DA" stroke-width="2" stroke-linecap="round" stroke-linejoin="round" stroke-miterlimit="10" d="
	M152.3,25.8c0-4.4-3.6-7.9-7.9-7.9c-4.4,0-7.9,3.6-7.9,7.9"/>
<path fill="none" stroke="#00B7DA" stroke-width="2" stroke-linecap="round" stroke-linejoin="round" stroke-miterlimit="10" d="
	M104.7,35.8c0,9.8,8,17.8,17.8,17.8h15.9c9.8,0,17.8-8,17.8-17.8"/>
</svg>
